<svg width="143" height="100" viewBox="0 0 143 100" fill="none" xmlns="http://www.w3.org/2000/svg">
<path d="M72 82C94.6437 82 113 63.6437 113 41C113 18.3563 94.6437 0 72 0C49.3563 0 31 18.3563 31 41C31 63.6437 49.3563 82 72 82Z" fill="#09224E"/>
<path d="M71.5 99.2495C110.988 99.2495 143 96.7871 143 93.7495C143 90.7119 110.988 88.2495 71.5 88.2495C32.0116 88.2495 0 90.7119 0 93.7495C0 96.7871 32.0116 99.2495 71.5 99.2495Z" fill="#E6E6E6"/>
<path d="M95 42.5662C94.8834 43.4157 94.8062 44.2719 94.6463 45.1129C93.3991 51.6822 89.9433 56.7357 84.3184 60.2403C80.6735 62.5124 76.6637 63.514 72.383 63.4266C63.6776 63.2489 55.7031 57.6166 52.5605 49.4186C52.2322 48.5634 52.5605 47.7081 53.3515 47.3822C54.1426 47.0562 54.9929 47.4268 55.3513 48.3163C56.7622 51.8247 58.9557 54.7173 62.0296 56.8896C66.1354 59.7908 70.7011 60.9017 75.6535 60.1909C83.6637 59.0411 89.9593 53.0306 91.6063 45.055C93.7057 34.887 87.2287 24.7476 77.1989 22.4926C68.0618 20.4382 59.0451 25.1591 55.4435 33.8855C55.1942 34.4908 54.8697 34.9906 54.1868 35.1113C53.6328 35.2063 53.1418 35.0476 52.7759 34.602C52.3912 34.1325 52.3131 33.6004 52.5389 33.0293C53.1578 31.467 53.9093 29.9713 54.8735 28.5981C58.9501 22.7939 64.4997 19.5392 71.5298 19.0527C82.6592 18.2829 92.5347 26.0315 94.6134 37.0736C94.7865 37.9897 94.8721 38.9219 94.9991 39.8456L95 42.5662Z" fill="white"/>
<path d="M75.7175 42.7251H75.1362C67.0375 42.7251 58.9394 42.7251 50.842 42.7251C50.5893 42.7317 50.3366 42.7078 50.0895 42.6539C49.7773 42.5665 49.5018 42.3784 49.3051 42.1183C49.1084 41.8581 49.0013 41.5402 49 41.2128C48.9987 40.8855 49.1034 40.5667 49.298 40.305C49.4927 40.0433 49.7667 39.853 50.0782 39.7631C50.3251 39.7075 50.5779 39.6829 50.8307 39.69C58.9589 39.69 67.0867 39.69 75.2142 39.69H75.8341C75.661 39.4999 75.5604 39.3754 75.4494 39.2633C73.7996 37.5946 72.1485 35.9263 70.4961 34.2582C70.0418 33.8002 69.8847 33.2604 70.0841 32.6427C70.2723 32.0574 70.7002 31.7219 71.2938 31.6269C71.8403 31.5404 72.2805 31.7685 72.6614 32.1543C74.1833 33.6963 75.7077 35.236 77.2347 36.7736C78.3258 37.874 79.4181 38.9731 80.5118 40.071C81.1702 40.7362 81.1834 41.6703 80.5268 42.3327C77.9006 44.9839 75.2719 47.632 72.6407 50.2769C72.0566 50.8652 71.3464 50.9725 70.7247 50.5886C69.8725 50.0622 69.7502 48.9314 70.4848 48.1759C71.5195 47.1078 72.5768 46.0549 73.6255 44.9972L75.7739 42.8325L75.7175 42.7251Z" fill="white"/>
</svg>
