<svg width="143" height="100" viewBox="0 0 143 100" fill="none" xmlns="http://www.w3.org/2000/svg">
<path d="M72 82C94.6437 82 113 63.6437 113 41C113 18.3563 94.6437 0 72 0C49.3563 0 31 18.3563 31 41C31 63.6437 49.3563 82 72 82Z" fill="#09224E"/>
<path d="M71.5 99.2495C110.988 99.2495 143 96.7871 143 93.7495C143 90.7119 110.988 88.2495 71.5 88.2495C32.0116 88.2495 0 90.7119 0 93.7495C0 96.7871 32.0116 99.2495 71.5 99.2495Z" fill="#E6E6E6"/>
<path d="M72.5074 31.7578C72.627 30.4972 72.9515 29.267 73.4672 28.1195C75.3673 23.9579 79.7252 21.4678 84.015 22.0976C88.552 22.768 92.1585 26.3162 92.8515 30.929C93.4301 34.7852 92.3241 38.0838 89.563 40.7564C89.3933 40.941 89.2949 41.1841 89.2865 41.4394C89.2706 45.9216 89.2792 50.4038 89.2731 54.886C89.2731 56.7869 88.323 58.2531 86.7153 58.784C86.2655 58.9253 85.7978 58.9953 85.328 58.9919C75.1943 59.0037 65.0606 59.0037 54.9269 58.9919C52.5884 58.9919 51.0111 57.3445 51.0087 54.9025C51.0022 48.5511 51.0022 42.2002 51.0087 35.8496C51.0074 33.3823 52.5811 31.7654 54.9537 31.7654H72.5074V31.7578ZM82.7264 41.4724C84.9555 41.469 87.0927 40.5472 88.6702 38.9085C90.2477 37.2698 91.1372 35.0477 91.1439 32.7285C91.1439 27.9294 87.3681 23.9845 82.7751 23.9744C80.5442 23.9677 78.4022 24.8833 76.8202 26.5197C75.2381 28.1562 74.3457 30.3795 74.3393 32.7006C74.3328 35.0216 75.2128 37.2503 76.7857 38.8962C78.3586 40.5422 80.4955 41.4707 82.7264 41.4774V41.4724ZM65.8401 46.6414L54.3557 57.0099H85.9187L74.4696 46.6706C74.4273 46.6842 74.3864 46.7024 74.3478 46.725C73.5659 47.4284 72.7888 48.138 72.0032 48.8363C70.8229 49.8843 69.4174 49.8716 68.2469 48.8134L65.8401 46.6414ZM54.4604 33.7334L54.4166 33.8233C54.5116 33.8994 54.609 33.9716 54.6992 34.0527L69.3138 47.2256C69.9862 47.8326 70.2882 47.8313 70.9703 47.2193C72.2833 46.0433 73.5951 44.8652 74.9056 43.685C75.6364 43.0273 76.3672 42.367 77.126 41.6853C74.4258 39.7363 72.8716 37.1004 72.5062 33.7346L54.4604 33.7334ZM64.3944 45.3754L52.9842 35.0842C52.7869 35.7318 52.8222 55.1978 53.0183 55.6375L64.3944 45.3754ZM87.3474 55.7161V42.329C87.2967 42.338 87.247 42.352 87.1988 42.3708C84.5643 43.6267 81.8835 43.78 79.1479 42.751C79.0881 42.7295 79.0245 42.7216 78.9615 42.7277C78.8985 42.7338 78.8375 42.7539 78.7825 42.7865C77.8203 43.6292 76.8715 44.4884 75.8825 45.3767L87.3474 55.7161Z" fill="white"/>
<path d="M80.8054 34.5976C80.9112 34.4175 81.0288 34.2451 81.1574 34.0818C82.7643 32.4006 84.3729 30.7224 85.9831 29.0471C86.4569 28.5529 86.927 28.5098 87.3387 28.914C87.7504 29.3183 87.7309 29.8949 87.2741 30.3777C85.3546 32.4052 83.431 34.4261 81.5033 36.4401C81.0161 36.947 80.5533 36.947 80.0697 36.4541C79.4404 35.8137 78.8184 35.1649 78.2037 34.5076C77.7945 34.0691 77.7921 33.5001 78.1696 33.1136C78.5472 32.7271 79.0807 32.7132 79.5009 33.1516C79.9211 33.5901 80.3097 34.0463 80.8054 34.5976Z" fill="white"/>
</svg>
